<svg width="177" height="52" fill="none" xmlns="http://www.w3.org/2000/svg"><path d="M7.79073 23.3826l2.65397-1.3088 4.195-6.2819 1.2842-.5234 1.3698 6.3691-1.7979.2617-1.3698-2.6174-1.0273 4.1007h4.5374l4.7087 1.2214 1.8835-1.2214 3.1677 3.3154 1.3698-6.1074 2.2259 2.2685 1.3698-1.9195 2.2259-.6107 3.2533-3.0537.5136-1.4833 2.654.4363 1.113 1.4832-1.9691 4.1879 4.8799-2.5302v-1.2215l1.8835-.4362 2.0547 2.094 2.0547-2.5302v-1.745l3.3389-2.3557 1.3698-2.0067h2.1403l3.7669-7.76512L64.8942 0l1.1985 1.91946-1.8834 2.44296.6849 1.57047 1.7978.34899 1.4554 6.45642v5.4093l2.5684 3.5772L72 26.698l-4.4518-2.8792-1.9691-8.2886-1.1986.2617-.1712 5.5839-3.2533 5.3222-.9417 8.1141 2.2259.5235.9417-1.1343 2.1403 2.443 1.6267 7.3289-.1713 4.7114H64.723l-.7706-6.6309-1.4554 2.0067-3.1676-.698-2.5684-2.1812-2.9108 1.047.1712 4.7114-2.3115.6107-3.4245 2.6175-4.1094-.5235-1.6266-.9597-2.5684.4362.8561 1.047-2.0547 1.2215-1.6266-.7853L34.0737 52l-4.7087-2.3557-1.7978-4.1879-1.541.1745-1.7979-1.4832-.0856-1.1343-5.736-.6107-.9418 3.1409-3.5957-1.6577-1.7979-3.0537H8.21879l-.42806 4.8859-2.22593.698-1.11296 4.4497-.85612-.7853L0 40.745l4.28062-2.094-.6849-4.1007-.6849-4.1879 1.88347-2.7047L4.19501 26l2.56837-2.7919 1.02735.1745zM64.723 33.6779l3.9381 5.9328 1.2842-.5235-1.6266-2.4429-3.5957-3.8389v.8725zM24.4851 21.6376v-1.745l2.9965-2.1812 2.5683-1.3087h-2.9964l-2.654 1.5705-1.6266 1.4832v2.1812h1.7122zM90.125 41.0004h4.7386v-5.1818h2.625c3.9804 0 6.6474-2.3437 6.6474-6.1022 0-3.716-2.599-6.1705-6.4769-6.1705H90.125v17.4545zm4.7386-8.8636V27.33h1.6705c1.6619 0 2.6591.8864 2.6591 2.3864 0 1.4914-.9972 2.4204-2.6591 2.4204h-1.6705zM111.969 41.2391c4.261 0 6.784-2.7273 6.784-6.75s-2.523-6.75-6.784-6.75c-4.262 0-6.784 2.7273-6.784 6.75s2.522 6.75 6.784 6.75zm.034-3.4773c-1.262 0-2.012-1.2528-2.012-3.3068 0-2.054.75-3.3068 2.012-3.3068 1.193 0 1.943 1.2528 1.943 3.3068 0 2.054-.75 3.3068-1.943 3.3068zM126.969 41.2391c3.878 0 6.255-2.2245 6.307-5.6932h-4.364c-.102 1.3722-.844 2.1136-1.875 2.1136-1.236 0-2.046-1.0568-2.046-3.2045s.81-3.2046 2.046-3.2046c1.04 0 1.747.7415 1.875 2.1137h4.364c-.026-3.4091-2.455-5.625-6.307-5.625-4.262 0-6.784 2.7273-6.784 6.75s2.522 6.75 6.784 6.75zM141.523 41.2391c3.878 0 6.256-2.2245 6.307-5.6932h-4.363c-.103 1.3722-.844 2.1136-1.875 2.1136-1.236 0-2.046-1.0568-2.046-3.2045s.81-3.2046 2.046-3.2046c1.039 0 1.747.7415 1.875 2.1137h4.363c-.025-3.4091-2.454-5.625-6.307-5.625-4.261 0-6.784 2.7273-6.784 6.75s2.523 6.75 6.784 6.75zM154.203 35.0004v-7.0909h-4.432v13.0909h4.432l3.648-7.125v7.125h4.432V27.9095h-4.432l-3.648 7.0909zM172.212 41.0004h4.363V27.9095h-6.136c-3.776 0-6.162 1.9091-6.136 4.5682-.017 1.4915.877 2.7273 2.446 3.4602l-2.583 5.0625h4.33l2.207-4.3295h1.509v4.3295zm0-7.159h-1.671c-1.253 0-1.832-.6137-1.807-1.1932-.025-.5455.52-1.2273 1.705-1.2273h1.773v2.4205z" fill="#fff"/></svg>