<svg width="142" height="42" fill="none" xmlns="http://www.w3.org/2000/svg"><path d="M6.26522 18.8859l2.13431-1.057 3.37357-5.0739 1.0327-.4228 1.1016 5.1443-1.4458.2114-1.1016-2.1141-.8262 3.3121h3.649l3.7867.9866 1.5146-.9866 2.5474 2.6779 1.1016-4.9329 1.7901 1.8322 1.1016-1.5503 1.79-.4933 2.6163-2.4665.4131-1.198 2.1343.3524.895 1.198-1.5835 3.3825 3.9243-2.0436v-.9866l1.5147-.3523 1.6524 1.6912 1.6523-2.0436v-1.4094l2.6851-1.9027 1.1016-1.62077h1.7212l3.0294-6.27181L52.1872 0l.9639 1.55034-1.5147 1.97315.5508 1.26846 1.4458.28188 1.1705 5.21477v4.3691l2.0654 2.8893 1.0327 4.0168-3.5801-2.3255-1.5835-6.6947-.9639.2114-.1377 4.5101-2.6162 4.2987-.7574 6.5537 1.7901.4228.7573-.9161 1.7213 1.9731 1.3081 5.9195-.1377 3.8053h-1.6524l-.6196-5.3557-1.1704 1.6208-2.5474-.5637-2.0655-1.7618-2.3408.8457.1377 3.8054-1.859.4932-2.7539 2.1141-3.3047-.4228-1.3082-.7752-2.0654.3524.6885.8456-1.6524.9866-1.3081-.6342L27.4017 42l-3.7866-1.9027-1.4459-3.3825-1.2392.1409-1.4459-1.198-.0688-.9161-4.6129-.4933-.7573 2.5369-2.8916-1.3389-1.44585-2.4664H6.60946l-.34424 3.9463-1.79006.5637-.89503 3.594-.68849-.6342L0 32.9094l3.44243-1.6913-.55079-3.3121-.55079-3.3825 1.51467-2.1846L3.37358 21l2.06546-2.255.82618.1409zm45.78428 8.3154l3.1671 4.792 1.0327-.4228-1.3081-1.9732-2.8917-3.1007v.7047zm-32.3588-9.7248v-1.4094l2.4097-1.7617 2.0654-1.0571h-2.4097l-2.1343 1.2685-1.3081 1.198v1.7617h1.377zM72.4776 33.1157h3.8107v-4.1853h2.111c3.2008 0 5.3461-1.893 5.3461-4.9287 0-3.0013-2.0905-4.9839-5.209-4.9839h-6.0588v14.0979zm3.8107-7.159v-3.8825h1.3434c1.3365 0 2.1384.7159 2.1384 1.9275 0 1.2046-.8019 1.955-2.1384 1.955h-1.3434zM90.0441 33.3085c3.4269 0 5.4557-2.2028 5.4557-5.4519 0-3.2492-2.0288-5.452-5.4557-5.452-3.4269 0-5.4557 2.2028-5.4557 5.452 0 3.2491 2.0288 5.4519 5.4557 5.4519zm.0274-2.8086c-1.0144 0-1.6175-1.0119-1.6175-2.6709s.6031-2.6709 1.6175-2.6709c.9596 0 1.5627 1.0119 1.5627 2.6709s-.6031 2.6709-1.5627 2.6709zM102.107 33.3085c3.118 0 5.031-1.7967 5.072-4.5984h-3.509c-.083 1.1083-.679 1.7072-1.508 1.7072-.994 0-1.645-.8536-1.645-2.5883 0-1.7347.651-2.5883 1.645-2.5883.836 0 1.405.5989 1.508 1.7072h3.509c-.021-2.7535-1.974-4.5433-5.072-4.5433-3.427 0-5.4557 2.2028-5.4557 5.452 0 3.2491 2.0287 5.4519 5.4557 5.4519zM113.812 33.3085c3.118 0 5.03-1.7967 5.072-4.5984h-3.51c-.082 1.1083-.678 1.7072-1.507 1.7072-.994 0-1.645-.8536-1.645-2.5883 0-1.7347.651-2.5883 1.645-2.5883.836 0 1.405.5989 1.507 1.7072h3.51c-.021-2.7535-1.974-4.5433-5.072-4.5433-3.427 0-5.456 2.2028-5.456 5.452 0 3.2491 2.029 5.4519 5.456 5.4519zM124.009 28.2696v-5.7273h-3.564v10.5734h3.564l2.933-5.7548v5.7548h3.564V22.5423h-3.564l-2.933 5.7273zM138.491 33.1157H142V22.5423h-4.935c-3.036 0-4.955 1.542-4.935 3.6897-.013 1.2047.706 2.2028 1.967 2.7948l-2.076 4.0889h3.482l1.775-3.4969h1.213v3.4969zm0-5.7823h-1.344c-1.007 0-1.473-.4956-1.453-.9637-.02-.4406.419-.9913 1.371-.9913h1.426v1.955z" fill="#fff"/></svg>